<svg version="1.1" xmlns="http://www.w3.org/2000/svg" viewBox="0 0 1511.6532561416254 639.765572939434" width="1511.6532561416254" height="639.765572939434">
  <!-- svg-source:excalidraw -->
  
  <defs>
    <style class="style-fonts">
      
    </style>
    
  </defs>
  <rect x="0" y="0" width="1511.6532561416254" height="639.765572939434" fill="#ffffff"></rect><g stroke-linecap="round" transform="translate(221.11458451956548 52.38698889422244) rotate(0 195.25363839431938 84.77397778844477)"><path d="M32 0 C150.27 0, 268.53 0, 358.51 0 M32 0 C138.31 0, 244.62 0, 358.51 0 M358.51 0 C379.84 0, 390.51 10.67, 390.51 32 M358.51 0 C379.84 0, 390.51 10.67, 390.51 32 M390.51 32 C390.51 64.78, 390.51 97.55, 390.51 137.55 M390.51 32 C390.51 69.23, 390.51 106.46, 390.51 137.55 M390.51 137.55 C390.51 158.88, 379.84 169.55, 358.51 169.55 M390.51 137.55 C390.51 158.88, 379.84 169.55, 358.51 169.55 M358.51 169.55 C239.59 169.55, 120.67 169.55, 32 169.55 M358.51 169.55 C272.63 169.55, 186.75 169.55, 32 169.55 M32 169.55 C10.67 169.55, 0 158.88, 0 137.55 M32 169.55 C10.67 169.55, 0 158.88, 0 137.55 M0 137.55 C0 116.41, 0 95.27, 0 32 M0 137.55 C0 107.47, 0 77.4, 0 32 M0 32 C0 10.67, 10.67 0, 32 0 M0 32 C0 10.67, 10.67 0, 32 0" stroke="#f08c00" stroke-width="2" fill="none"></path></g><g stroke-linecap="round" transform="translate(10 392.5766576802463) rotate(0 182.12733671386192 95.16563502411378)"><path d="M32 0 C126.43 0, 220.85 0, 332.25 0 M32 0 C112.21 0, 192.41 0, 332.25 0 M332.25 0 C353.59 0, 364.25 10.67, 364.25 32 M332.25 0 C353.59 0, 364.25 10.67, 364.25 32 M364.25 32 C364.25 81.42, 364.25 130.84, 364.25 158.33 M364.25 32 C364.25 62.23, 364.25 92.45, 364.25 158.33 M364.25 158.33 C364.25 179.66, 353.59 190.33, 332.25 190.33 M364.25 158.33 C364.25 179.66, 353.59 190.33, 332.25 190.33 M332.25 190.33 C252.88 190.33, 173.51 190.33, 32 190.33 M332.25 190.33 C235.98 190.33, 139.7 190.33, 32 190.33 M32 190.33 C10.67 190.33, 0 179.66, 0 158.33 M32 190.33 C10.67 190.33, 0 179.66, 0 158.33 M0 158.33 C0 128.12, 0 97.91, 0 32 M0 158.33 C0 125.28, 0 92.23, 0 32 M0 32 C0 10.67, 10.67 0, 32 0 M0 32 C0 10.67, 10.67 0, 32 0" stroke="#f08c00" stroke-width="2" fill="none"></path></g><g stroke-linecap="round"><g transform="translate(240.82590222989148 391.5766576802463) rotate(0 52.569695171715495 -80.99235020912693)"><path d="M0 0 C17.52 -27, 87.62 -134.99, 105.14 -161.98 M0 0 C17.52 -27, 87.62 -134.99, 105.14 -161.98" stroke="#f08c00" stroke-width="2" fill="none"></path></g><g transform="translate(240.82590222989148 391.5766576802463) rotate(0 52.569695171715495 -80.99235020912693)"><path d="M99.52 -137.62 C100.78 -143.07, 102.04 -148.53, 105.14 -161.98 M99.52 -137.62 C101.46 -146.03, 103.4 -154.44, 105.14 -161.98" stroke="#f08c00" stroke-width="2" fill="none"></path></g><g transform="translate(240.82590222989148 391.5766576802463) rotate(0 52.569695171715495 -80.99235020912693)"><path d="M85.18 -146.93 C89.64 -150.3, 94.11 -153.67, 105.14 -161.98 M85.18 -146.93 C92.07 -152.13, 98.96 -157.32, 105.14 -161.98" stroke="#f08c00" stroke-width="2" fill="none"></path></g></g><mask></mask><g transform="translate(248.46094551272523 96.4148020099442) rotate(0 172.072265625 41.39999999999998)"><text x="0" y="30.420703125" font-family="Helvetica, Segoe UI Emoji" font-size="36px" fill="#e03131" text-anchor="start" style="white-space: pre;" direction="ltr" dominant-baseline="alphabetic">void calculateSalary()</text><text x="0" y="71.820703125" font-family="Helvetica, Segoe UI Emoji" font-size="36px" fill="#e03131" text-anchor="start" style="white-space: pre;" direction="ltr" dominant-baseline="alphabetic">void showSalary()</text></g><g transform="translate(339.79813673244297 10) rotate(0 80.53125 20.69999999999999)"><text x="0" y="30.420703125" font-family="Helvetica, Segoe UI Emoji" font-size="36px" fill="#1971c2" text-anchor="start" style="white-space: pre;" direction="ltr" dominant-baseline="alphabetic">Employee</text></g><g transform="translate(19.165096134536554 583.2646816078728) rotate(0 168.580078125 20.700000000000003)"><text x="0" y="30.420703125" font-family="Helvetica, Segoe UI Emoji" font-size="36px" fill="#1971c2" text-anchor="start" style="white-space: pre;" direction="ltr" dominant-baseline="alphabetic">PermanentEmployee</text></g><g stroke-linecap="round" transform="translate(536.6925784845806 392.2082601222304) rotate(0 182.12733671386192 95.16563502411378)"><path d="M32 0 C146.27 0, 260.54 0, 332.25 0 M32 0 C96.66 0, 161.33 0, 332.25 0 M332.25 0 C353.59 0, 364.25 10.67, 364.25 32 M332.25 0 C353.59 0, 364.25 10.67, 364.25 32 M364.25 32 C364.25 63.78, 364.25 95.56, 364.25 158.33 M364.25 32 C364.25 72.11, 364.25 112.22, 364.25 158.33 M364.25 158.33 C364.25 179.66, 353.59 190.33, 332.25 190.33 M364.25 158.33 C364.25 179.66, 353.59 190.33, 332.25 190.33 M332.25 190.33 C234.54 190.33, 136.83 190.33, 32 190.33 M332.25 190.33 C226.56 190.33, 120.87 190.33, 32 190.33 M32 190.33 C10.67 190.33, 0 179.66, 0 158.33 M32 190.33 C10.67 190.33, 0 179.66, 0 158.33 M0 158.33 C0 122.08, 0 85.84, 0 32 M0 158.33 C0 115.23, 0 72.12, 0 32 M0 32 C0 10.67, 10.67 0, 32 0 M0 32 C0 10.67, 10.67 0, 32 0" stroke="#f08c00" stroke-width="2" fill="none"></path></g><g stroke-linecap="round"><g transform="translate(767.5184807144719 391.2082601222304) rotate(0 -120.80674593693294 -79.8984882584752)"><path d="M0 0 C-40.27 -26.63, -201.34 -133.16, -241.61 -159.8 M0 0 C-40.27 -26.63, -201.34 -133.16, -241.61 -159.8" stroke="#f08c00" stroke-width="2" fill="none"></path></g><g transform="translate(767.5184807144719 391.2082601222304) rotate(0 -120.80674593693294 -79.8984882584752)"><path d="M-217.3 -153.97 C-223.61 -155.48, -229.92 -156.99, -241.61 -159.8 M-217.3 -153.97 C-223.64 -155.49, -229.98 -157.01, -241.61 -159.8" stroke="#f08c00" stroke-width="2" fill="none"></path></g><g transform="translate(767.5184807144719 391.2082601222304) rotate(0 -120.80674593693294 -79.8984882584752)"><path d="M-226.74 -139.71 C-230.6 -144.92, -234.46 -150.13, -241.61 -159.8 M-226.74 -139.71 C-230.61 -144.94, -234.49 -150.18, -241.61 -159.8" stroke="#f08c00" stroke-width="2" fill="none"></path></g></g><mask></mask><g transform="translate(679.308373597633 588.3655729394341) rotate(0 46.51757812499997 20.700000000000003)"><text x="0" y="30.420703125" font-family="Helvetica, Segoe UI Emoji" font-size="36px" fill="#1971c2" text-anchor="start" style="white-space: pre;" direction="ltr" dominant-baseline="alphabetic">Intern</text></g><g transform="translate(22.03246059348703 430.861805089374) rotate(0 172.072265625 62.099999999999994)"><text x="0" y="30.420703125" font-family="Helvetica, Segoe UI Emoji" font-size="36px" fill="#2f9e44" text-anchor="start" style="white-space: pre;" direction="ltr" dominant-baseline="alphabetic">void calculateSalary()</text><text x="0" y="71.820703125" font-family="Helvetica, Segoe UI Emoji" font-size="36px" fill="#2f9e44" text-anchor="start" style="white-space: pre;" direction="ltr" dominant-baseline="alphabetic">void showSalary()</text><text x="0" y="113.220703125" font-family="Helvetica, Segoe UI Emoji" font-size="36px" fill="#2f9e44" text-anchor="start" style="white-space: pre;" direction="ltr" dominant-baseline="alphabetic"></text></g><g transform="translate(552.2169384630195 431.38514618408647) rotate(0 172.072265625 41.400000000000006)"><text x="0" y="30.420703125" font-family="Helvetica, Segoe UI Emoji" font-size="36px" fill="#2f9e44" text-anchor="start" style="white-space: pre;" direction="ltr" dominant-baseline="alphabetic">void calculateSalary()</text><text x="0" y="71.820703125" font-family="Helvetica, Segoe UI Emoji" font-size="36px" fill="#2f9e44" text-anchor="start" style="white-space: pre;" direction="ltr" dominant-baseline="alphabetic">void showSalary()</text></g><g transform="translate(27.378919177418993 516.5394155733404) rotate(0 151.0751953125 20.700000000000003)"><text x="0" y="30.420703125" font-family="Helvetica, Segoe UI Emoji" font-size="36px" fill="#e03131" text-anchor="start" style="white-space: pre;" direction="ltr" dominant-baseline="alphabetic">void deductHInsu()</text></g><g transform="translate(559.8895559945324 523.1025872772504) rotate(0 152.3671875 20.700000000000003)"><text x="0" y="30.420703125" font-family="Helvetica, Segoe UI Emoji" font-size="36px" fill="#e03131" text-anchor="start" style="white-space: pre;" direction="ltr" dominant-baseline="alphabetic">void getTrvlAlwnc()</text></g><g transform="translate(921.1835623854317 40.628009436159005) rotate(0 144.0703125 20.69999999999999)"><text x="0" y="30.420703125" font-family="Helvetica, Segoe UI Emoji" font-size="36px" fill="#2f9e44" text-anchor="start" style="white-space: pre;" direction="ltr" dominant-baseline="alphabetic">Green : overriding</text></g><g transform="translate(955.0930533551389 94.2270572449595) rotate(0 172.5205078125 20.69999999999999)"><text x="0" y="30.420703125" font-family="Helvetica, Segoe UI Emoji" font-size="36px" fill="#e03131" text-anchor="start" style="white-space: pre;" direction="ltr" dominant-baseline="alphabetic">Red : it's own method</text></g><g transform="translate(970.4071623916254 170.79705997167594) rotate(0 265.623046875 20.69999999999999)"><text x="0" y="30.420703125" font-family="Helvetica, Segoe UI Emoji" font-size="36px" fill="#e03131" text-anchor="start" style="white-space: pre;" direction="ltr" dominant-baseline="alphabetic">Employee emp=new Employee();</text></g><g stroke-linecap="round" transform="translate(1015.2552728678495 215.5085550622764) rotate(0 195.25363839431935 50.31746195684548)"><path d="M25.16 0 C157.64 0, 290.13 0, 365.35 0 M25.16 0 C123.78 0, 222.4 0, 365.35 0 M365.35 0 C382.12 0, 390.51 8.39, 390.51 25.16 M365.35 0 C382.12 0, 390.51 8.39, 390.51 25.16 M390.51 25.16 C390.51 43.17, 390.51 61.18, 390.51 75.48 M390.51 25.16 C390.51 44.87, 390.51 64.59, 390.51 75.48 M390.51 75.48 C390.51 92.25, 382.12 100.63, 365.35 100.63 M390.51 75.48 C390.51 92.25, 382.12 100.63, 365.35 100.63 M365.35 100.63 C239.54 100.63, 113.73 100.63, 25.16 100.63 M365.35 100.63 C282.77 100.63, 200.18 100.63, 25.16 100.63 M25.16 100.63 C8.39 100.63, 0 92.25, 0 75.48 M25.16 100.63 C8.39 100.63, 0 92.25, 0 75.48 M0 75.48 C0 62.24, 0 49, 0 25.16 M0 75.48 C0 58.61, 0 41.74, 0 25.16 M0 25.16 C0 8.39, 8.39 0, 25.16 0 M0 25.16 C0 8.39, 8.39 0, 25.16 0" stroke="#f08c00" stroke-width="2" fill="none"></path></g><g transform="translate(1040.4137847776176 230.00219982880935) rotate(0 172.072265625 41.400000000000006)"><text x="0" y="30.420703125" font-family="Helvetica, Segoe UI Emoji" font-size="36px" fill="#e03131" text-anchor="start" style="white-space: pre;" direction="ltr" dominant-baseline="alphabetic">void calculateSalary()</text><text x="0" y="71.820703125" font-family="Helvetica, Segoe UI Emoji" font-size="36px" fill="#e03131" text-anchor="start" style="white-space: pre;" direction="ltr" dominant-baseline="alphabetic">void showSalary()</text></g><g transform="translate(1161.2854364380632 314.22923621008783) rotate(0 35.015625 20.69999999999999)"><text x="0" y="30.420703125" font-family="Helvetica, Segoe UI Emoji" font-size="36px" fill="#1971c2" text-anchor="start" style="white-space: pre;" direction="ltr" dominant-baseline="alphabetic">emp</text></g><g transform="translate(985.1743091572641 381.91168621860413) rotate(0 236.123046875 20.69999999999999)"><text x="0" y="30.420703125" font-family="Helvetica, Segoe UI Emoji" font-size="36px" fill="#e03131" text-anchor="start" style="white-space: pre;" direction="ltr" dominant-baseline="alphabetic">Employee emp2=new intern()</text></g><g stroke-linecap="round" transform="translate(1038.2263946952164 436.7828685993492) rotate(0 182.1273367138619 71.64771783534997)"><path d="M32 0 C150.84 0, 269.68 0, 332.25 0 M32 0 C124.9 0, 217.81 0, 332.25 0 M332.25 0 C353.59 0, 364.25 10.67, 364.25 32 M332.25 0 C353.59 0, 364.25 10.67, 364.25 32 M364.25 32 C364.25 55, 364.25 78, 364.25 111.3 M364.25 32 C364.25 56.89, 364.25 81.78, 364.25 111.3 M364.25 111.3 C364.25 132.63, 353.59 143.3, 332.25 143.3 M364.25 111.3 C364.25 132.63, 353.59 143.3, 332.25 143.3 M332.25 143.3 C258.84 143.3, 185.43 143.3, 32 143.3 M332.25 143.3 C247.64 143.3, 163.02 143.3, 32 143.3 M32 143.3 C10.67 143.3, 0 132.63, 0 111.3 M32 143.3 C10.67 143.3, 0 132.63, 0 111.3 M0 111.3 C0 80.8, 0 50.3, 0 32 M0 111.3 C0 93.99, 0 76.68, 0 32 M0 32 C0 10.67, 10.67 0, 32 0 M0 32 C0 10.67, 10.67 0, 32 0" stroke="#f08c00" stroke-width="2" fill="none"></path></g><g transform="translate(1176.4667420056621 580.4350581494482) rotate(0 45.0263671875 20.700000000000003)"><text x="0" y="30.420703125" font-family="Helvetica, Segoe UI Emoji" font-size="36px" fill="#1971c2" text-anchor="start" style="white-space: pre;" direction="ltr" dominant-baseline="alphabetic">emp2</text></g><g transform="translate(1050.2588552887034 448.81549610228734) rotate(0 172.07226562499994 62.099999999999994)"><text x="0" y="30.420703125" font-family="Helvetica, Segoe UI Emoji" font-size="36px" fill="#2f9e44" text-anchor="start" style="white-space: pre;" direction="ltr" dominant-baseline="alphabetic">void calculateSalary()</text><text x="0" y="71.820703125" font-family="Helvetica, Segoe UI Emoji" font-size="36px" fill="#2f9e44" text-anchor="start" style="white-space: pre;" direction="ltr" dominant-baseline="alphabetic">void showSalary()</text><text x="0" y="113.220703125" font-family="Helvetica, Segoe UI Emoji" font-size="36px" fill="#2f9e44" text-anchor="start" style="white-space: pre;" direction="ltr" dominant-baseline="alphabetic"></text></g><g transform="translate(1055.6053138726354 534.4931065862537) rotate(0 152.36718749999994 20.700000000000003)"><text x="0" y="30.420703125" font-family="Helvetica, Segoe UI Emoji" font-size="36px" fill="#e03131" text-anchor="start" style="white-space: pre;" direction="ltr" dominant-baseline="alphabetic">void getTrvlAlwnc()</text></g><g stroke-linecap="round"><g transform="translate(1048.6180936582482 557.2024118204947) rotate(0 164.6256289581603 -0.5469205434851574)"><path d="M0 0 C54.88 -0.18, 274.38 -0.91, 329.25 -1.09 M0 0 C54.88 -0.18, 274.38 -0.91, 329.25 -1.09" stroke="#e03131" stroke-width="2" fill="none"></path></g></g><mask></mask></svg>